<svg xmlns="http://www.w3.org/2000/svg" width="75" height="55" class="bbs_rosie" viewBox="0 0 19.84 14.55">
  <path d="M2.82 0c-.13 0-.25.02-.37.06-.3.1-.56.34-.87.42-.25.07-.53.06-.78.09C.55.59.3.66.06.69c-.05.31-.1.7-.01 1 .14.5.57.86 1.05.98.4.1 1.07.05 1.38.36.23.23.16.53.13.81-.03.2 0 .41-.03.62-.02.23-.08.47-.06.7.04.4.45.42.67.68.37.44.09 1.03-.13 1.46l.13.05-.43.83.3.09v.65c.2.12.28.25.3.49l.27.04.26-.09.04.3c.81.35 1.26 1.07 1.34 1.94.02.25-.08.49-.05.74.03.32.16.61.24.92.04.16.1.35.05.5-.08.25-.5.4-.2.68.04.03.1.06.15.07.75.23 1.14-.56 1.74-.77l.26-2.67v-.53l.13.05c.13-.28.27-.37.52-.53l.13.1.88-.14 1.91-.13c.12-.32.42-.05.61.05.27.15.63.2.86.42.13.12.3.4.36.58.13.34-.04.8-.3 1.03-.14.12-.54.27-.45.52.04.1.15.1.23.12.23.05.49.03.68-.11.15-.12.37-.3.46-.48.16-.31.2-.82.25-1.17.38.1.75.35 1.09.55.59.34 1.22.61 1.33 1.38.03.25.04.55-.1.78-.08.15-.37.35-.22.54.3.38 1.14.19 1.29-.23.07-.2 0-.4-.01-.61a9.03 9.03 0 00-.27-1.62 3.6 3.6 0 00-.46-.99c-.17-.3-.37-.53-.3-.9l-.21.05-.05-.44-.22.05c-.12-.25-.29-.46-.38-.72-.18-.5-.23-1.06-.45-1.56-.12-.28-.41-.72-.23-1.03.1-.17.33-.23.5-.3.4-.2.8-.35 1.22-.51l.04.04c0 .23.1.31.3.4l-.17.4.22-.05.17.22v-.27h.05l.13.53h.08l.1-.4h.08l.04.44.18-.08.04.17.26-.04.13-.22-.04.44.48-.18c.16.22.21-.07.22-.22h.08v.27l.18.17c.34-.3.42-.7.43-1.14h.05l.04.48h.09l.04-.43.17-.05-.08-.22h.17l-.22-.48.22.3h.09c.04-.24.01-.43-.18-.6v-.05l.13-.17c-.49-.1-.95.01-1.43 0-.28 0-.55-.14-.83-.17-.47-.04-.94.04-1.4.13-.7.14-1.33.51-2.04.59-.81.09-1.55-.42-2.35-.5-1.2-.1-2.44.3-3.62.03-.5-.12-1-.31-1.48-.5-.32-.14-.7-.3-.9-.6-.18-.25-.17-.58-.27-.85-.14-.38-.4-.71-.6-1.07-.27-.5-.4-1-.93-1.3a2.48 2.48 0 00-1.1-.3zm16.7 4.87l.02.01c-.02 0-.05-.01-.02-.01zm-2 1.2l-.04.18h-.05zm.65.31v.14h-.04z"/>
</svg>
