<svg xmlns="http://www.w3.org/2000/svg" width="300" height="217" viewBox="0 0 79.37 57.41" class="city-and-guilds-logo">
  <path d="M8.94 9.06c-1.75 0-3.51.5-4.95 1.43a7.83 7.83 0 00-2.78 3.17c-1.77 3.75-1.03 8.78 2.47 11.3a9.39 9.39 0 008.7 1c.92-.36 1.75-.92 2.4-1.65.2-.22.42-.45.55-.71-.59-.4-1.17-.83-1.75-1.24l-.44-.31c-.06-.05-.15-.13-.24-.12-.09 0-.16.1-.21.16-.12.14-.24.29-.37.42a4.44 4.44 0 01-3.67 1.37 5.52 5.52 0 01-4.27-2.56 6.7 6.7 0 01.37-7.54c1.68-2.04 5.02-2.8 7.18-1.04.24.2.48.41.68.65l.75-.5 1.59-1.15c-.16-.34-.51-.6-.78-.85a6.83 6.83 0 00-2.9-1.55 9.24 9.24 0 00-2.33-.28zm9.08.27c-.1 0-.18 0-.28.02a1.72 1.72 0 00-1.4 2.22c.06.2.17.38.3.54.43.52 1.11.69 1.76.59 1.16-.17 1.88-1.48 1.26-2.51-.34-.57-.99-.87-1.64-.86zm5.25 2.27v3.25h-2.34v2.4h2.34v4.92c0 1.03-.01 2.21.59 3.1.68 1.03 2.01 1.17 3.13 1.17a7.66 7.66 0 001.8-.22c.12-.03.28-.06.37-.15.11-.13.05-.46.05-.62V23.7c-.6.25-1.22.4-1.88.31-.33-.04-.66-.16-.87-.44-.43-.57-.34-1.36-.34-2.04v-4.27h3.09v-2.4h-3.1V11.6zm9.55 3.25h-2.93c.1.3.23.57.35.85.27.66.56 1.31.84 1.97l2.22 5.25.93 2.19.29.68c.05.13.13.27.16.41.02.14-.05.27-.1.39l-.3.75c-.2.47-.38 1.04-.75 1.4-.31.33-.76.47-1.2.5a4.61 4.61 0 01-1.83-.27c-.07.62-.17 1.23-.26 1.85l-.06.46c0 .07-.02.16.02.22.07.1.26.1.37.13.34.07.68.12 1.02.15 1.07.1 2.29.03 3.22-.56.4-.25.73-.6 1-.99.52-.73.81-1.6 1.14-2.43l1.3-3.33 2.48-6.36.87-2.24c.13-.34.28-.67.39-1.02h-2.66c-.08 0-.2-.01-.27.04-.14.1-.19.41-.25.57l-.54 1.5c-.7 1.92-1.34 3.85-2.08 5.74-.13-.24-.23-.52-.33-.78l-.5-1.24-1.48-3.67-.62-1.53c-.06-.16-.12-.48-.28-.59a.3.3 0 00-.16-.04zm-13.35 0h-2.82v11.3h2.82zM62.6 28.26c-.06 0-.13 0-.18.05-.1.08-.05.37-.05.49v7.39c-.13-.1-.23-.22-.34-.34a4.82 4.82 0 00-2.75-1.32 5.3 5.3 0 00-3.68.76c-1.9 1.19-2.71 3.47-2.58 5.64.06 1.01.33 2.04.87 2.91a5.24 5.24 0 004.1 2.49c.8.07 1.6 0 2.36-.26a3.89 3.89 0 001.65-1.04c.2-.2.33-.45.52-.65v1.19l.04.46.2.05h2.46V28.27H62.59zm-13.93 0v17.82h2.63l.19-.07.02-.32V28.63l-.03-.31-.2-.05h-.52zm-27.29.72c-1.87 0-3.75.44-5.3 1.52-2.4 1.66-3.53 4.45-3.53 7.3 0 2.2.67 4.34 2.17 6a8.87 8.87 0 006.64 2.7 15.05 15.05 0 006.42-1.4c.14-.07.36-.14.45-.27.1-.17.04-.49.04-.67V36.3H22.32l-.42.05-.04.22V39h3.43v3.57c0 .1.01.24-.05.33-.12.16-.42.26-.6.33-.6.24-1.2.39-1.83.46-.84.11-1.7.15-2.53 0a5.46 5.46 0 01-4.04-3.19c-1.07-2.33-.72-5.39 1.12-7.24 2.22-2.24 6.11-2.05 8.37.03.2-.16.36-.36.53-.54l1.12-1.12.39-.38c.04-.06.1-.12.09-.2-.02-.08-.1-.14-.16-.2a7.18 7.18 0 00-2.63-1.4 13.32 13.32 0 00-3.7-.48zm23.25.25l-.25.02c-1.12.14-1.88 1.34-1.38 2.4a1.75 1.75 0 00.92.85 2 2 0 001 .12c.26-.04.52-.11.75-.25.81-.5 1.1-1.66.5-2.43a1.91 1.91 0 00-1.54-.7zm26.47 5.25c-.47 0-.94.06-1.4.16a4.4 4.4 0 00-2.1 1.04c-.7.67-1 1.57-1 2.53 0 .46.07.94.28 1.36.18.34.47.65.77.89.88.68 2.02.8 3.07 1.05.73.17 1.95.42 1.97 1.36 0 .1 0 .21-.02.32-.1.41-.5.7-.88.86a2.9 2.9 0 01-2.63-.32 5.57 5.57 0 01-.7-.57c-.09-.08-.2-.25-.32-.26-.18 0-.4.29-.51.4l-1.39 1.3v.02c.5.5 1 .94 1.66 1.23a6.93 6.93 0 002.41.5c1.8.01 3.98-.33 4.9-2.1.13-.24.22-.52.27-.8a4.07 4.07 0 00-.16-2.06c-.09-.21-.2-.4-.35-.58-.83-1.04-2.11-1.27-3.33-1.57-.5-.12-1-.22-1.48-.42-.24-.1-.49-.23-.62-.47a.85.85 0 01-.1-.32c-.08-.73.63-1.14 1.26-1.24 1.02-.18 1.96.3 2.58 1.1.2-.11.38-.3.56-.46l.87-.78c.11-.1.45-.31.42-.49-.04-.17-.25-.34-.37-.46-.4-.39-.89-.67-1.41-.85a6.77 6.77 0 00-2.25-.37zm-27.57.26c-.1 0-.19.01-.24.05-.05.05-.05.14-.05.2v10.75c0 .08-.01.18.02.25s.1.08.17.09h2.02c.15 0 .47.06.58-.04.06-.05.06-.14.06-.2V35.09c0-.08 0-.17-.02-.25-.03-.07-.1-.08-.18-.08h-2.02l-.34-.02zm-13.17.01v5.96c0 1.26-.08 2.6.55 3.74.16.29.35.56.58.8.8.82 1.9 1.1 3.01 1.1.63 0 1.26-.09 1.83-.37a3.7 3.7 0 001.63-1.72h.02v1.28l.04.49.2.05h2.46V34.75h-2.82v4.77c0 .92.1 1.92-.26 2.8-.4.96-1.3 1.47-2.32 1.47-.43 0-.85-.07-1.2-.35-.78-.64-.82-1.69-.87-2.61-.04-.77-.02-1.54-.02-2.3v-3.78zm28.83 2.28a3.26 3.26 0 012.74 1.47c.84 1.3.71 3.2-.39 4.32a3.18 3.18 0 01-2.04.97 3.29 3.29 0 01-2.92-1.18c-1.29-1.6-.85-4.21.97-5.19a3.28 3.28 0 011.64-.39zm-29 14.56v4.23h.51V51.6zm3.31 0v1.95h-.02c-.37-.56-1.27-.55-1.75-.16-.7.58-.68 1.84.12 2.32.2.13.46.2.7.2.36 0 .73-.14.93-.44h.02v.36H34V51.6zm-26.02.17c-.55 0-1.1.22-1.47.62a2.2 2.2 0 00.18 3.09c.52.43 1.28.58 1.93.37.23-.08.46-.2.65-.37.07-.05.18-.15.16-.25-.02-.1-.15-.17-.23-.22a.87.87 0 00-.2-.1c-.14.18-.31.34-.53.43-.55.22-1.24 0-1.6-.46-.6-.77-.36-2.04.55-2.47.24-.1.52-.15.78-.1.31.06.53.22.76.44h.02l.44-.34a1.8 1.8 0 00-1.44-.64zm32.91 0c-.38 0-.75.07-1.1.25a2.04 2.04 0 00-1.04 1.72c0 .28.02.56.1.83.34 1.05 1.43 1.48 2.45 1.34.24-.03.48-.09.71-.17.1-.03.22-.07.3-.15.11-.12.07-.38.07-.53V53.6h-1.44l.04.46.23.05h.6v.76c0 .1.02.23-.05.32-.15.19-.58.2-.8.21-.23 0-.46-.02-.68-.11a1.58 1.58 0 01-.95-1.47c0-.86.71-1.63 1.61-1.55.2.02.4.06.58.15.12.06.22.17.34.2.14.03.4-.23.37-.37-.04-.12-.2-.2-.3-.25a2.15 2.15 0 00-1.04-.24zm-16.6 0c-.55 0-1.1.17-1.5.57a2.2 2.2 0 00-.4 2.47c.44.92 1.4 1.22 2.36 1.1.25-.03.48-.1.7-.17.1-.04.23-.08.3-.16.1-.11.05-.38.05-.52V53.6h-1.41v.51h.87v.73c0 .1.02.24-.04.32-.08.13-.28.17-.42.2-.4.08-.85.07-1.22-.13-.93-.5-1.12-1.88-.31-2.59a1.54 1.54 0 011.85-.12c.07.05.15.12.24.1.14-.03.27-.23.37-.33-.26-.3-.66-.46-1.05-.5a2.86 2.86 0 00-.38-.03zm-5.92.04c-.47 0-.95.27-1.04.77-.03.16-.01.32.04.48.07.24.25.42.4.61-.33.12-.65.38-.8.7-.24.54.02 1.2.55 1.44.42.18.97.18 1.37-.05.2-.12.36-.29.53-.44.1.17.28.4.47.48.2.09.5.03.7.03l-.56-.6-.25-.32.17-.36.52-.83-.58.03-.2.24-.32.53-.78-.8c.2-.1.4-.23.55-.4.1-.1.18-.22.22-.35.03-.1.04-.21.04-.32-.02-.57-.52-.85-1.03-.84zm-15.92.05a.35.35 0 00-.19.05c-.08.06-.1.17-.15.25l-.24.56-.88 2c-.17.36-.36.73-.48 1.11l.59-.03.15-.26.26-.68h1.29c.16 0 .4-.04.55.03.08.04.12.15.15.24.07.14.12.29.18.44.03.07.06.16.12.21.13.12.46.05.63.05-.12-.36-.3-.71-.45-1.07l-.83-1.94-.3-.7c-.05-.1-.09-.22-.2-.24a.9.9 0 00-.2-.02zm53.39.01v3.96h1.1c.42 0 .84 0 1.2-.25.52-.36.6-1.14.15-1.58a1.01 1.01 0 00-.53-.26c.21-.1.41-.2.54-.41a.95.95 0 00-.37-1.3c-.3-.16-.66-.16-1-.16zm8.83 0a.4.4 0 00-.12.03c-.44.15-.2.82.24.68.4-.14.24-.71-.12-.7zm-34.9 0a.4.4 0 00-.12.03c-.45.13-.23.81.21.68.41-.12.27-.7-.1-.7zm-19.6 0l-.12.02c-.46.14-.23.84.22.69.4-.13.26-.7-.1-.7zm8.22.42c.04 0 .09 0 .13.02.6.15.26.97-.21 1.04-.16.02-.3-.2-.36-.31-.17-.32-.03-.7.35-.74h.09zm38.79.07c.12 0 .25 0 .36.06.37.18.4.77.05.98-.34.2-.85.13-1.22.13v-1.17h.81zm-45.42.07l-.46.04-.06.2v.51h-.58v.44h.58v1.29c0 .23 0 .52.14.73.17.24.51.29.79.26.1-.01.24-.02.3-.11.08-.11.04-.32.02-.44-.22.07-.5.13-.65-.1-.1-.15-.08-.39-.08-.56v-1.07h.73v-.44h-.73zm-9.28.15l.7 1.8H1.23l.44-1.1zm33.57.53c-.42 0-.84.17-.98.54a.7.7 0 00.22.84c.17.11.37.16.56.21.2.05.57.12.58.38.02.2-.24.31-.4.33-.16.02-.31 0-.45-.08-.09-.05-.18-.15-.29-.16-.11 0-.3.14-.33.25-.03.21.35.38.5.42.46.14 1.14.09 1.42-.35.2-.3.15-.77-.15-1-.2-.14-.45-.18-.68-.24-.19-.04-.58-.2-.45-.45.12-.24.46-.23.67-.14.08.04.17.13.26.14.14 0 .29-.15.4-.23-.16-.3-.52-.45-.88-.46zm26.92 0c-.41-.01-.84.17-.98.54a.7.7 0 00.22.84c.17.12.37.16.56.21.2.05.57.12.58.38.02.2-.24.31-.4.33-.16.02-.3 0-.44-.08-.1-.05-.19-.15-.3-.16-.11 0-.3.14-.33.25-.04.21.35.38.5.42.46.14 1.14.09 1.42-.35.2-.3.15-.77-.15-1-.2-.14-.45-.18-.68-.24-.19-.04-.58-.2-.45-.45.12-.24.47-.23.67-.14.08.04.17.13.26.14.14 0 .29-.15.4-.23-.16-.3-.52-.45-.88-.46zm6.8 0a1.4 1.4 0 00-1.4 1.46c.01.2.06.42.15.6.33.7 1.23.9 1.9.6.2-.09.36-.23.5-.4v-.02c-.09-.08-.23-.22-.36-.22-.17 0-.34.23-.5.28-.51.17-1.09-.2-1.13-.72h2.12c0-.46-.06-.93-.42-1.26a1.23 1.23 0 00-.87-.32zm-2.83 0c-.34 0-.67.16-.83.46h-.03v-.39h-.5v2.65h.5v-1.09c0-.25 0-.52.11-.75.21-.4.81-.56 1.1-.15.14.2.13.47.13.7v1.3h.51v-1.4c0-.3.02-.61-.14-.9a.96.96 0 00-.85-.43zm-20.77 0l-.17.01a1.44 1.44 0 00-1 .6c-.67.98.17 2.32 1.34 2.17a1.39 1.39 0 00.99-.57c.67-.93-.07-2.22-1.16-2.2zm26.2 0c-.24 0-.47.07-.66.2-.37.26-.45.87-.07 1.16.23.18.54.2.82.29.16.05.4.18.34.4-.1.32-.6.3-.83.18-.1-.06-.2-.16-.31-.16-.14 0-.29.16-.4.24v.02c.13.14.25.27.42.34.61.28 1.77.1 1.7-.77-.04-.45-.4-.63-.8-.72-.2-.05-.47-.08-.6-.28-.1-.2.08-.36.26-.4.25-.05.47.06.63.23.12-.04.36-.15.37-.3.02-.17-.26-.3-.39-.34a1.39 1.39 0 00-.44-.08h-.04zm-27.98 0l-.12.01a.88.88 0 00-.65.43h-.03v-.37h-.53v2.65h.53V54.8c0-.2-.02-.41.03-.6a.68.68 0 01.53-.53c.15-.02.3 0 .44.02 0-.14.07-.4-.02-.51-.03-.06-.1-.07-.18-.07zm8.07 0a1.37 1.37 0 00-.94.43v-.36h-.5V57c0 .1-.03.25.03.34.07.13.36.07.48.07v-1.94c.17.17.34.31.58.38a1.37 1.37 0 001.1-.14c1.01-.65.7-2.37-.49-2.57a1.37 1.37 0 00-.26-.02zm22.25 0c-.36 0-.73.15-.9.46a.7.7 0 00-.08.27l.01.27c.09.42.55.53.91.61.2.05.6.18.48.45-.12.29-.56.3-.8.18-.1-.05-.21-.17-.34-.18-.14 0-.28.17-.39.25.31.44.86.55 1.37.45.3-.06.58-.22.7-.52a.74.74 0 00-.22-.85 1.32 1.32 0 00-.53-.21c-.21-.05-.6-.1-.63-.38-.02-.2.2-.3.36-.3.12-.02.24 0 .34.06.08.04.16.12.25.13.11.01.33-.13.34-.25.02-.2-.32-.33-.47-.38a1.38 1.38 0 00-.4-.05zm-59.64.06c-.1 0-.19.01-.25.05-.14.1-.2.42-.25.57-.17.48-.33.97-.53 1.44l-.55-1.44-.25-.57-.56-.04c.06.27.2.53.3.78l.47 1.14c.09.22.24.47.27.7.02.13-.04.24-.08.35-.11.28-.25.55-.6.53-.08 0-.16-.02-.24-.04-.03.11-.1.33-.03.43.06.1.22.1.32.1.32 0 .6-.06.79-.34.28-.41.41-.95.6-1.4l.57-1.5c.1-.24.21-.49.28-.75h-.26zm-5.16.01v2.65h.5v-2.65zm16.6 0v1.39c0 .3-.03.6.12.87.32.6 1.35.63 1.68.03h.02v.36h.54v-2.65h-.54v1.12c0 .26.02.52-.1.76-.23.41-.86.5-1.12.07-.12-.2-.1-.44-.1-.66v-1.29zm2.99 0v2.65h.51v-2.65zm18.57 0v1.41c0 .3-.02.6.13.88.33.57 1.36.6 1.67 0h.03v.36h.53v-2.65h-.53v1.15c0 .25.01.5-.1.73-.24.41-.87.5-1.13.07-.12-.2-.09-.46-.09-.68v-1.27zm11 0v1.39c0 .3-.01.62.15.9.34.58 1.38.6 1.68-.03h.02v.4h.51v-2.66h-.5v1.12c0 .25 0 .5-.11.73-.2.4-.82.55-1.1.14-.15-.2-.14-.48-.14-.72v-1.27zm5.33 0v2.65h.54v-2.65zm5.38.34h.03c.22 0 .43.1.57.32.08.14.1.28.1.44h-1.55c.03-.43.45-.75.85-.76zm-36.67.08h.05c.25 0 .5.1.66.32.39.5.15 1.39-.52 1.49a.89.89 0 01-.81-.26c-.44-.5-.2-1.44.49-1.54l.13-.01zm13.04 0c.28 0 .56.1.72.34.36.5.14 1.37-.53 1.47-.3.04-.63-.03-.83-.28-.41-.51-.18-1.43.52-1.52l.12-.01zm6.23 0c.28 0 .56.1.73.34.35.5.13 1.37-.54 1.47a.89.89 0 01-.8-.26c-.45-.5-.22-1.45.49-1.54l.12-.01zm4.59.37c.27 0 .53.03.74.15.43.27.38.94-.07 1.15-.37.16-.88.08-1.27.08v-1.36l.6-.02zm-38.9.06h.04c.1.02.17.11.24.18l.49.5c.07.08.18.17.16.27 0 .1-.11.19-.19.24a.96.96 0 01-.73.23c-.4-.06-.7-.45-.6-.86.07-.2.22-.35.38-.46.07-.04.14-.1.22-.1z" class="cg_text"/>
  <path fill="#ff0d00" d="M64.12 0a6.35 6.35 0 00-3.39 1.02c-.2.14-.47.29-.62.5-.13.18.08.38-.06.56-.14.17-.43.04-.61.11-.29.12-.43.5-.31.78.05.12.16.21.24.31l-.25.17h-.02a.65.65 0 00-.24-.21c-.4-.16-.75.16-.7.55.02.18.16.3.28.42l-.34.22.13.43.11.2.22.05c-.11.11-.29.37-.46.4-.17.02-.29-.21-.46-.22-.08 0-.16.05-.22.1-.08.05-.2.12-.25.21-.08.16.09.44.13.6h.44l.2-.05.11-.29.44.41c-.4.14-.4.59-.17.88l-.3.31a.63.63 0 00-.26-.16.48.48 0 00-.24 0c-.62.15-.3 1.11.29.88a.4.4 0 00.17-.13h.05c.05.23-.2.38-.34.53-.06.07-.16.15-.15.24.02.23.36.35.44.56.07.2-.05.45.02.66.05.15.27.26.27.41 0 .16-.25.24-.16.42.03.06.09.11.14.17.13.13.31.4.5.26h.03c.1.12.23.22.29.35.04.1.02.2.05.31.08.23.32.4.56.39.12-.01.23-.06.34-.1.14.35.08.78.08 1.14h.36c-.08.09-.17.18-.2.3-.08.31.17.6.5.58.15-.02.26-.13.38-.22l.13.41h.19l-.34.34v.03l.39.38.22.12.29-.24.12.17v.03a.8.8 0 00-.17.83c.04.12.16.23.17.36.01.18-.14.32-.07.5s.39.2.33.43c-.03.13-.17.21-.3.16-.08-.04-.13-.12-.21-.16-.23-.1-.5 0-.64.19a.5.5 0 00-.05.47c.05.13.21.24.09.38-.13.15-.27.03-.34-.1h-.78v.24c-.2-.2-.46-.35-.75-.22-.43.19-.42.8-.03 1l-.22.22v-.2h-1v.98h.27c-.13.13-.25.24-.27.44l-.46-.44c.1-.03.19-.07.26-.14.46-.43-.24-1.14-.68-.68a.65.65 0 00-.14.26l-.31-.32c-.06-.05-.12-.12-.2-.13-.07-.01-.12.03-.17.07-.11.09-.4.31-.38.48.02.07.09.14.14.2l.36.36c-.12.03-.23.08-.3.2-.19.27 0 .57.3.62l-.48.46h-.03c-.13-.46-.78-.46-.95-.02h-.02a.6.6 0 00-.18-.25c-.5-.39-1.16.28-.77.78.06.08.15.13.24.17v.03c-.14.05-.22.12-.27.27-.1-.13-.2-.27-.36-.32-.55-.17-1.01.53-.55.93.07.06.14.09.23.11l-.36.3c-.25-.46-.81-.47-1.05 0-.1-.19-.26-.34-.49-.34-.45 0-.65.52-.41.86.06.09.17.13.27.18-.18.07-.28.15-.34.34-.15-.1-.36-.34-.54-.33-.18 0-.39.24-.53.33-.13-.47-.83-.48-.95 0-.15-.1-.36-.33-.54-.33-.18 0-.4.23-.53.33-.07-.19-.16-.27-.35-.34.1-.05.21-.1.28-.2.23-.34.02-.85-.42-.84-.22 0-.39.15-.49.34-.23-.47-.8-.46-1.04 0l-.25-.25v-.02h.1l.2-.7-.47-.32v-.03c.11-.03.23-.07.31-.16a.6.6 0 00.1-.2c.21-.6-.74-.97-.94-.37h-.05l-.17-.21.22-.73-.42-.32c.18-.07.3-.17.4-.34.04.1.1.18.19.23.2.12.48.12.65-.06.24-.24.19-.68-.12-.83.22-.21.45-.5.27-.82-.06-.1-.16-.19-.24-.27l.24-.3H46c.04.1.07.19.16.25.22.13.53.14.71-.07.21-.24.17-.69-.16-.8l.32-.3c.05.09.1.16.2.2.48.28 1.03-.31.72-.78a.7.7 0 00-.27-.22c.13-.06.2-.11.27-.24.22.22.5.45.83.26.1-.06.18-.15.27-.23.22.38.72.36.95 0 .08.08.16.17.26.23.32.2.62-.04.83-.26.07.14.15.2.3.24v.03c-.1.04-.18.1-.24.17-.22.26-.1.7.2.82.22.09.46 0 .6-.17.07-.07.1-.14.11-.24h.03l.12.46h.12v.03c-.32.11-.37.56-.16.8.18.21.5.2.71.07.09-.06.12-.15.16-.24h.02c.08.19.2.3.4.36-.12.09-.27.17-.35.29-.1.13.01.35.06.5.02.05.04.13.09.17.05.04.11.04.17.04.13 0 .38.04.48-.05.08-.08.1-.22.13-.31.03-.1.07-.22.03-.31-.07-.14-.25-.24-.35-.35a.55.55 0 00.23-.12c.48-.43-.12-1.21-.67-.87a.82.82 0 00-.24.28c-.05-.13-.11-.2-.25-.26v-.03h.13l.11-.41c.02-.07.06-.16.04-.24-.05-.18-.35-.33-.5-.44h-.02c-.11.09-.33.32-.48.29-.13-.03-.24-.2-.35-.27a.48.48 0 00.23-.15c.16-.2.16-.51-.03-.7a.53.53 0 00-.83.12l-.3-.29c.32-.2.41-.65.08-.9l.12-.43h.03c.13.35.54.53.87.28.1-.07.15-.17.2-.28l.12.39h.7l.2-.68-.41-.32.41-.27c.06.08.11.15.2.2.59.32 1.13-.53.58-.93l.15-.41h.02c.04.11.1.21.2.29.48.36 1.12-.25.79-.75a.77.77 0 00-.26-.22c.38-.16.46-.77.03-.92v-.03c.18-.05.2-.28.25-.44.02-.07.05-.16.02-.23-.07-.15-.26-.25-.4-.32v-.05c.1-.04.22-.08.3-.16a.63.63 0 00.1-.2c.2-.61-.79-.96-.96-.35l-.24-.24.16-.46.03-.24-.26-.25-.27-.12-.51.34c-.05-.18-.12-.26-.3-.32v-.02a.59.59 0 00.23-.15c.43-.5-.24-1.2-.75-.8a.58.58 0 00-.18.24c-.13-.09-.32-.3-.49-.3-.15-.01-.33.18-.43.28h-.03c-.2-.24-.5-.48-.83-.29-.11.07-.2.19-.29.3h-.02l-.42-.35h-.02l-.41.34h-.03c-.1-.12-.21-.27-.36-.32-.47-.15-.86.25-.75.7.04.17.2.29.3.4l-.21.2c-.11-.12-.23-.26-.4-.3-.42-.07-.85.27-.7.73.04.13.16.23.27.32v.02l-.24.3c-.14-.1-.32-.3-.49-.3-.19-.02-.41.24-.56.34l.22.73c-.34.25-.26.77.12.92v.05c-.33.11-.4.55-.18.81.05.07.13.1.2.14-.08.05-.17.1-.23.18-.37.44.13 1.07.65.84a.63.63 0 00.3-.3l.28.3a.68.68 0 00-.23.18c-.35.44.14 1.06.65.84a.6.6 0 00.27-.24l.29.29a.53.53 0 00-.14.83c.18.19.46.18.67.06.1-.06.14-.14.2-.23.07.14.17.23.31.31v.03c-.43.17-.4.78.03.94l-.3.27c-.2-.2-.5-.42-.8-.24-.1.07-.2.17-.29.26-.25-.44-.98-.3-.99.25 0 .1.05.22.11.3.06.1.14.14.22.18l-.26.25c-.12-.1-.22-.22-.37-.26-.46-.11-.83.26-.72.72.04.16.2.28.3.39-.12.05-.18.13-.24.26-.08-.12-.17-.25-.31-.31a.56.56 0 00-.76.36.58.58 0 00.04.4c.04.07.13.15.13.24 0 .1-.12.2-.2.26-.13-.31-.58-.37-.82-.12-.18.19-.18.46-.04.67.06.1.14.14.24.18-.34.17-.5.59-.23.9a.7.7 0 00.27.17l-.4.32.21.73c-.32.23-.26.69.05.9-.1.1-.22.22-.26.36-.1.46.26.83.72.72.16-.04.28-.2.39-.3.03.11.05.24.17.3v.03c-.3.13-.33.58-.12.8.19.2.49.2.7.06.09-.07.12-.15.15-.25h.03c.08.2.22.3.4.39-.12.07-.35.2-.39.34-.02.08.02.17.04.24.04.14.09.27.12.42h.7l.12-.47h.03c.03.1.06.22.14.3.2.19.54.19.74 0 .08-.08.11-.2.14-.3h.02c.04.13.06.32.16.41.07.07.2.06.28.06.1 0 .25.02.35-.03.12-.07.14-.31.16-.44H49c.03.1.07.22.15.3.19.19.5.18.71.02.1-.07.14-.2.2-.3.03.12.05.3.14.4.1.1.37.05.5.04.05 0 .1 0 .15-.03.1-.08.13-.3.17-.43.05.11.09.24.18.32.2.16.53.16.72-.02.08-.08.11-.2.14-.3h.03l.12.47h.7c.03-.15.08-.28.12-.42.02-.07.06-.16.04-.24-.04-.15-.27-.27-.4-.34.2-.1.34-.21.44-.41.04.1.06.27.15.35.08.05.2.03.29.03.1 0 .23.03.32-.02.13-.07.24-.47.21-.6-.03-.17-.27-.3-.38-.4.2-.05.3-.16.4-.34.23.5 1.03.4 1.02-.2 0-.09-.05-.2-.1-.28a.55.55 0 00-.23-.2.64.64 0 00.32-.34h.02c.12.35.56.46.83.21.1-.08.14-.24.2-.35l.18.38.2.03v.02c-.1.05-.23.08-.3.17a.61.61 0 00-.11.2c-.22.6.76.97.95.36l.36.32c-.14.1-.27.2-.31.39-.08.34.21.67.56.64a.53.53 0 00.44-.69.57.57 0 00-.3-.32v-.02c.19-.06.29-.2.37-.36l.39.4a.52.52 0 00-.23.1c-.44.37.08 1.09.56.75a.49.49 0 00.15-.19h.05c.09.19.21.28.4.37-.22.12-.38.33-.3.58.03.1.1.18.15.27h.07c.03-.04.06-.09.1-.11.31-.19.46.4.1.37a.23.23 0 01-.11-.04c-.05-.03-.08-.08-.11-.12-.23.18-.41.48-.24.77.06.11.16.2.26.27v.03l-.27.24h-.02c-.1-.12-.2-.26-.37-.28-.37-.07-.76.28-.6.67.19.46.9.4.97-.1h.02l.15.49h.5l.24-.06.16-.43h.02c.05.15.12.27.27.34.3.14.66-.1.65-.44a.63.63 0 00-.14-.34c.1-.02.14-.07.17-.17.19.17.5.25.76.14a.85.85 0 00.3-.26c.12-.15.12-.34.19-.5.1-.28.32-.52.58-.66.31-.17.68-.27 1.02-.35 1-.25 2.23-.34 3.19.13.15.07.29.16.41.27.64.58.56 1.54.3 2.28-.07.17-.15.35-.25.5-.05.1-.14.2-.15.3 0 .1.06.19.1.27l.22.43c.2.43.42.84.63 1.27.1.21.18.48.33.67.1.12.31.08.45.08h5.99c0-.52.01-1.07-.49-1.39-.1-.06-.2-.1-.31-.14-.23-.07-.47-.07-.7-.1-.14-.9-1.19-.92-1.9-.92h-.42c-.37 0-.73.03-.96-.32a1.14 1.14 0 01-.12-.24 1.9 1.9 0 01.01-1.1c.19-.73.61-1.44 1.05-2.06.2-.3.49-.58.6-.92.23-.64-.06-1.24-.47-1.73a6.39 6.39 0 00-2.15-1.46c-.37-.17-.76-.35-1.15-.43l.22-1.14c.58.25 1.19.5 1.83.55.48.03.94-.06 1.4-.17l-.45-.58c1.1 0 2.17-.1 3.11-.73l-.39-.14-.56-.27.54-.3a10.83 10.83 0 01.75-.38c.6-.25 1.51-.6 1.9.14.06.11.1.23.12.34.03.19-.02.36-.05.54.57-.27.84-.82 1.2-1.29l-.03.92c.62-.33 1.2-.91 1.11-1.67-.04-.32-.2-.65-.35-.93.28 0 .52.1.77.22-.2-1.23-1.55-2.43-2.84-2.1-.5.13-.93.48-1.37.73-.8.46-1.65.89-2.55 1.11-.64.17-1.28.2-1.9-.05.5-.4 1.04-.73 1.5-1.17.24-.21.5-.46.62-.75h.05c.1.24.19.46.2.73.18-.1.31-.28.43-.47a6.36 6.36 0 00.94-2.96c.03-.61-.09-1.21-.09-1.82 0-.38.07-.78.18-1.14.1-.38.27-.8.6-1.03.33-.23.76-.04.97.27.07.1.1.22.12.34.38-.43.57-1.2.16-1.67-.13-.14-.3-.22-.47-.3.32-.1.56-.08.85.1.07-.57-.24-1.2-.8-1.39-.3-.09-.62-.05-.9.03l.31-.73a2.76 2.76 0 00-.78 0c-.91.1-1.9.6-2.2 1.53-.08.26-.08.52-.09.78 0 .23-.03.45-.05.68-.06.62-.16 1.24-.3 1.85-.21.97-.53 1.85-1.35 2.48-.95.73-2.2.58-3.04-.25-.2-.2-.36-.4-.48-.65-.22-.5-.2-.98-.08-1.49.32.07.63.13.87.38.1.1.19.24.24.38.04.08.05.21.13.27.12.1.38.04.51.02.65-.11 1.06-.7 1.07-1.34 0-.2.07-.5-.14-.6.18-.24.34-.49.46-.76.15-.3.3-.66.29-1 0-.28-.22-.52-.4-.72-.32-.39-.7-.7-1.13-.96-.22-.14-.53-.24-.71-.42-.26-.27-.14-.74-.38-1.03-.3-.37-.8-.6-1.22-.8-.16-.08-.34-.12-.48-.22-.12-.08-.1-.24-.14-.37a.78.78 0 00-.26-.44c-.2-.16-.52-.23-.78-.28a4.48 4.48 0 00-.82-.08zm-3.93 2.31c.47.02.44.73-.02.71-.46-.01-.44-.72.02-.7zm1 .08c.25 0 .38.4.11.53-.32.15-.55-.36-.22-.5a.27.27 0 01.11-.03zm-9.66.07l-.2.2v.02c.05.04.1.1.18.13.09.03.2-.06.18-.16-.02-.08-.1-.14-.16-.2zm8.6.94a.4.4 0 01.04 0c.3.02.41.4.2.6-.06.08-.2.07-.3.06-.36-.03-.3-.64.06-.66zm-5.54.14h-.02c-.17.03-.13.3.05.27.16-.03.13-.28-.03-.27zm-6.1.06c-.01 0-.04 0-.07.02-.16.09-.03.34.13.25.15-.07.08-.27-.05-.27zM62.98 4h.44v.42h-.44zm-3.85.34l.33.3-.08.46h-.51c-.04-.13-.13-.3-.1-.44s.25-.24.36-.32zm-11.62.1h-.02a.26.26 0 00-.11.04c-.3.16-.07.64.24.48.25-.13.12-.5-.1-.51zm14.2.06h.03c.1.02.2.14.27.2v.03l-.3.3c-.08-.07-.2-.16-.23-.27-.02-.11.12-.26.24-.26zm-11.17 0c-.3.01-.27.46.02.44.28-.02.26-.45-.02-.44zm-4.06.01l-.05.07c-.1.2.23.18.12 0l-.07-.07zm3.04 0l-.2.15c.06.21.13.27.34.27l.08-.27zm9.64.78l.41.42v.02l-.41.41h-.03c-.1-.1-.32-.26-.34-.41-.01-.17.25-.35.37-.44zm-9.64.02a.4.4 0 00-.17.05c-.51.25-.1 1 .39.74.41-.21.16-.8-.22-.79zm2.04.06c-.14 0-.35.17-.38.3-.02.07.02.16.04.23.04.13.08.23.22.24h.4c.02-.13.09-.27.1-.4 0-.11-.06-.18-.14-.24-.06-.05-.13-.12-.21-.13h-.03zm-1.03 0h-.01c-.13.03-.36.25-.33.38.01.08.08.15.13.2.06.06.15.15.25.13.12-.02.35-.24.33-.37-.02-.08-.09-.15-.14-.2-.06-.06-.14-.14-.23-.14zm3.07.08l-.09.01c-.36.11-.19.65.17.54.3-.1.2-.54-.08-.55zm-5.1.01c-.07.07-.17.15-.19.25-.02.1.12.25.23.23.1-.02.18-.12.25-.19v-.02zm4.08.01c-.04 0-.07 0-.11.02-.3.13-.12.6.19.5.29-.12.17-.51-.08-.52zm3.02.05h-.02c-.1.02-.18.12-.24.19v.02l.26.27c.08-.06.2-.14.21-.25.02-.1-.1-.23-.2-.23zm-8.09.06a.2.2 0 00-.03 0c-.22.05-.16.4.06.35.19-.04.15-.34-.03-.35zm12.65.4h.02c.12 0 .22.13.3.21v.02l-.3.3h-.02l-.3-.3c.07-.08.17-.23.3-.24zm-6.6.35a.43.43 0 00-.17.05c-.48.24-.08.98.39.74.42-.21.17-.81-.22-.8zm4.09.01c-.14 0-.4.27-.4.4 0 .16.3.44.45.38.16-.06.3-.25.41-.37-.07-.1-.16-.18-.24-.27-.06-.05-.13-.14-.22-.14zm-10.14.01a.4.4 0 00-.08.01c-.5.1-.34.87.14.76.46-.1.36-.77-.06-.77zm-1 0a.5.5 0 00-.08.01c-.49.09-.37.85.12.76.46-.08.39-.76-.03-.77zm10.11.21h-.02c-.23.03-.18.39.05.35.2-.03.18-.35-.03-.35zm-11.15.01c-.02 0-.04 0-.06.02-.13.05-.17.25-.03.32.07.05.17.03.24.03l.08-.26c-.07-.05-.15-.1-.23-.1zm9.15.02h-.02a.2.2 0 00-.09.03l-.12.1c.03.04.06.09.1.12a.2.2 0 00.07.04c.23.06.22-.28.06-.3zm7.06.02c.13 0 .29.16.11.28a.2.2 0 01-.08.02c-.05.01-.1 0-.14 0-.01-.04-.03-.09-.03-.14 0-.12.07-.16.14-.16zm-9.63.28c.07.17.18.28.34.37v.02a.52.52 0 00-.34.47c0 .28.27.55.56.52a.63.63 0 00.26-.1c.12-.08.17-.21.23-.33l.17.49c-.06.05-.11.1-.15.17-.2.32.02.6.27.8-.4.22-.43.77.02.95v.02c-.3.18-.5.54-.25.85.08.1.19.16.3.22l-.37.37.13.6-.1.22c-.24-.15-.42-.35-.73-.24-.54.17-.43.91.05 1.07v.02l-.37.25c-.24-.44-.78-.47-1.02 0l-.5-.3-.5.3c-.2-.29-.52-.5-.84-.24a.96.96 0 00-.2.24l-.25-.27c.12-.15.3-.28.32-.49a.58.58 0 00-.75-.58c-.13.04-.23.15-.32.24h-.02l-.3-.24v-.02c.39-.18.44-.74.03-.93v-.02c.17-.07.2-.27.25-.44.02-.08.06-.17 0-.25-.08-.14-.25-.22-.35-.36.1-.04.2-.07.27-.16.24-.28.1-.65-.2-.8.27-.22.48-.5.26-.83a1.03 1.03 0 00-.18-.2v-.02l.29-.27c.04.08.1.14.17.19.09.05.2.1.3.09.51-.01.67-.7.23-.96l.34-.34.08.31h.7l.08-.31c.13.08.23.2.36.27.32.16.6-.06.78-.3h.03c.02.1.04.22.12.3.13.11.48.04.65.04zm7.1.2c.07 0 .15.04.2.07-.05.2-.14.24-.34.25 0-.07-.03-.13-.02-.2.03-.1.09-.12.16-.12zm-12.63.26a.5.5 0 00-.1 0c-.52.09-.38.89.15.8.48-.08.38-.78-.05-.8zm8.07 0l-.13.03c-.5.18-.2.93.3.75.43-.17.23-.79-.17-.77zm-5.07.02c-.5.02-.48.79.02.77.5-.02.48-.8-.02-.77zm2.06 0h-.04c-.5.03-.46.81.05.77.48-.04.45-.76 0-.77zm-1.03.04h-.03c-.15.03-.3.23-.4.34v.02c.1.1.27.33.42.33.15 0 .32-.23.41-.33-.08-.1-.25-.35-.4-.36zm9.6.04l.3.3v.02c-.07.07-.16.19-.27.2-.12.03-.28-.13-.26-.25.02-.11.15-.2.24-.27zm-14.67.07h-.05c-.2.05-.3.34-.12.48.1.07.26.04.36.04l.1-.37c-.08-.06-.18-.15-.3-.15zm-2.05.02c-.25.01-.23.42.03.4.25-.03.22-.41-.03-.4zm15.7.2c.12.12.4.32.4.5 0 .16-.28.37-.4.48h-.02c-.11-.11-.4-.32-.4-.49 0-.07.04-.12.09-.17.1-.11.21-.22.33-.31zm1.85.27h.42v.44h-.42zm-16.52.3c-.11.1-.39.29-.39.46 0 .16.28.35.39.46h.02c.1-.11.38-.3.38-.46 0-.18-.28-.37-.4-.47zm4.04.04c-.1.1-.3.24-.33.4-.03.13.23.4.38.37.14-.03.28-.23.38-.33v-.02zm4.06 0c-.1.1-.33.26-.33.42 0 .15.23.31.33.4h.03c.1-.1.3-.23.33-.38.02-.16-.25-.35-.36-.44zm3.06.16c-.04 0-.07 0-.11.02-.32.14-.1.6.21.47.28-.12.14-.49-.1-.5zm-10.15 0c-.03 0-.06 0-.09.02-.3.1-.14.58.17.48.3-.1.18-.5-.08-.5zm6.1 0c-.03 0-.06 0-.1.02-.3.12-.11.6.19.47.26-.11.14-.48-.09-.49zm-4.6.4l.33.4c-.13.07-.21.14-.26.28H47l-.15-.29zm13.2.03c.37-.01.5.6.08.7-.44.12-.62-.57-.17-.68l.08-.02zm-6.05.02c.1.17.2.24.39.32l-.44.34a.56.56 0 00-.3-.32zm9.03.13h.02c.1.02.16.1.22.16v.03l-.22.22c-.06-.06-.14-.12-.17-.2-.04-.1.05-.21.15-.2zm-7.53.31h-.04c-.48.06-.4.8.07.75.47-.06.4-.76-.03-.75zm-10.15.02c-.14 0-.35.22-.35.34 0 .14.26.4.4.35.15-.05.27-.22.37-.32a2.32 2.32 0 00-.22-.24c-.05-.05-.11-.12-.2-.13zm3.06.1h-.06c-.33.06-.23.58.1.51.3-.06.24-.51-.04-.51zm4.04 0l-.1.03c-.3.13-.08.6.2.45.26-.12.14-.47-.1-.47zm-8.3.05v.41h.4v-.41zm13.23.07v.27h.27v-.27zm-3.38.22c.06.17.08.4.27.46v.03a.42.42 0 00-.25.24h-.05l-.31-.32zm5 .03h.02c.4.02.54.65.09.78-.5.13-.71-.63-.22-.77l.1-.01zm1.72.07h.65v.65h-.65zm-13.8.02c.08.17.19.24.36.3l-.44.33a.6.6 0 00-.26-.31zm-1.58.38a.41.41 0 00-.18.05c-.46.24-.09.98.37.75.43-.22.19-.81-.2-.8zm10.15.03a.4.4 0 00-.18.04c-.46.24-.1.98.37.75.4-.2.19-.8-.2-.8zm2.03.14l-.09.01c-.3.1-.13.6.17.48.27-.1.17-.5-.08-.5zm5.1.03c.21 0 .28.35.04.42-.27.08-.38-.34-.12-.42h.08zm-18.28 0a.2.2 0 00-.03.01c-.33.05-.26.57.07.53.33-.04.27-.54-.04-.53zm-2.02.08c-.06 0-.14.04-.22.12v.02c.17.16.26.16.43 0-.07-.09-.14-.14-.2-.14zm4.57.24c.08.16.09.37.27.44v.02l-.27.27-.34-.34c.18-.1.24-.21.34-.39zm13.14.09c.34-.01.56.5.19.68-.42.2-.77-.44-.35-.64.06-.03.1-.04.16-.04zm-6.06.03h.05l.25.27-.3.34-.36-.3a.7.7 0 00.36-.3zm1.53.53h-.06c-.34.08-.22.6.12.52.3-.07.22-.52-.06-.52zm-10.13 0h-.06c-.34.07-.24.6.1.52.3-.06.24-.51-.04-.52zm3.03 0c-.04 0-.1.02-.14.05-.28.16-.04.61.26.45.26-.14.12-.5-.12-.5zm4.06.01c-.04 0-.1.01-.14.04-.3.16-.03.61.26.45.26-.14.11-.48-.12-.49zm6.1.07a.2.2 0 00-.05.01c-.24.09-.1.45.13.35.2-.08.1-.37-.08-.36zm-7.12 0h-.02c-.24.03-.2.4.05.37.21-.04.18-.36-.03-.36zm5.07.04l-.07.01-.13.07.04.14a.2.2 0 00.06.09c.21.15.4-.25.12-.31h-.02zm-7.1 0c-.06 0-.13.03-.2.08.03.12.14.35.3.21.06-.05.08-.14.1-.2-.07-.06-.14-.09-.2-.09zm11.45.4h.42v.43h-.42zm1.22.07c.05 0 .09.02.13.08l.02.09-.03.15h-.14c-.25-.04-.12-.33.02-.32zm-15.72.27c-.1.1-.3.24-.33.39-.03.14.23.4.37.37.15-.02.3-.22.4-.33v-.02zm8.15.02h-.05c-.52.03-.47.84.05.8.5-.05.47-.78 0-.8zm-9.13 0l-.05.01c-.5.03-.45.82.05.77.48-.04.45-.76 0-.77zm-1.04.06c-.2 0-.3.24-.19.38.05.07.12.13.19.2l.16-.15c.14-.15.07-.43-.16-.43zm5.08.07c-.05 0-.1 0-.14.03-.3.17-.04.62.26.46.26-.14.1-.48-.12-.5zm2.02 0a.3.3 0 00-.1.02c-.3.1-.14.6.17.5.3-.09.2-.52-.07-.52zm6.06.04c-.05.06-.12.12-.13.2-.02.1.1.2.2.17.07-.02.13-.08.18-.12v-.03zm-7.27.03v.41h.39v-.41zm12.86.03c.17 0 .26.25.08.33-.2.08-.33-.21-.15-.31a.18.18 0 01.07-.02zm-2.05.42c.23 0 .3.38.04.44-.28.08-.4-.35-.12-.43.03-.01.06-.02.08-.01zm-13.65.35c-.04 0-.09 0-.13.02-.5.15-.26.93.24.78.46-.14.3-.79-.1-.8zm6.1 0a.46.46 0 00-.13.01c-.49.14-.3.92.2.79.46-.12.34-.78-.06-.8zm.99.06h-.02c-.12.02-.35.24-.33.38.02.07.09.14.14.19.06.06.14.15.24.13.12-.02.35-.24.33-.37-.01-.08-.08-.14-.14-.2-.05-.05-.13-.14-.22-.13zm-8.09.06h-.03c-.37.02-.34.59.02.57.35-.02.34-.55 0-.57zm-1.02.13h-.03c-.18.04-.13.3.04.27.16-.03.13-.27-.01-.27zm14.19 0h-.03c-.18.04-.13.3.04.27.16-.03.13-.27-.01-.27zm-2.05.04c-.02 0-.04 0-.07.02-.14.09 0 .3.15.2.12-.07.03-.23-.08-.22zm-14.18 0h-.01l-.04.02c-.09.06 0 .21.09.15.07-.04.03-.16-.04-.16zm12.16.02c-.02 0-.04 0-.07.02-.15.1 0 .32.15.23.12-.07.04-.25-.08-.25zm-5.53.25l.1.41-.15.27H50a.47.47 0 00-.3-.3v-.02zm12.15.16h.19v.44c-.1 0-.27.03-.37-.02-.1-.06-.1-.32 0-.38a.36.36 0 01.18-.04zm-13.73.27c-.1.1-.3.25-.33.4-.03.13.23.4.38.37.14-.02.28-.23.38-.33v-.02zm3.08.04h-.04c-.5.03-.46.82.05.77.48-.04.44-.76 0-.77zm1 .12c-.03 0-.06 0-.09.02-.33.1-.16.6.17.5.29-.1.18-.52-.08-.52zm-5.07 0l-.08.02c-.33.1-.17.6.16.48.27-.1.17-.5-.08-.5zm12.16.03l-.07.01c-.28.1-.14.53.14.44.26-.08.17-.45-.07-.45zm-13.17.06h-.02c-.23.01-.2.36.02.35.22 0 .2-.35 0-.35zm16.72.29l.34.34v.02c-.08.09-.19.24-.31.26-.13.02-.33-.18-.3-.3.01-.14.18-.24.27-.32zm-13.19.07l.24.3-.26.26-.3-.27zm2.54.42c-.04 0-.07 0-.1.02-.52.13-.3.92.21.78.45-.12.32-.78-.08-.8h-.03zm-6.08 0l-.09.01c-.52.12-.32.92.2.8.46-.12.32-.81-.1-.8zm14.16.1h-.03c-.13.03-.25.2-.34.28v.03c.09.09.22.28.36.28.14 0 .28-.2.37-.28-.08-.1-.22-.3-.36-.3zm-5.04.09h-.05c-.28.08-.17.5.11.44.26-.07.18-.43-.04-.44h-.02zm-10.13.07h-.05c-.18.06-.1.34.07.29.17-.05.12-.28-.02-.29zm8.1.05c-.05 0-.1.02-.17.05.06.16.12.21.3.22l.04-.22a.34.34 0 00-.17-.05zm-5.04.72h-.1c-.47.1-.36.85.13.77.47-.07.4-.76-.03-.77zm5.08 0h-.08c-.5.08-.4.84.1.78.46-.07.4-.76-.02-.78zm-8.15 0h-.04c-.5.08-.4.85.1.77.46-.08.38-.78-.06-.76zm9.12.04h-.03c-.15.03-.3.23-.4.33v.03c.1.1.27.33.42.33.15 0 .32-.23.42-.33-.09-.1-.25-.35-.41-.36zm-4.04.07h-.02a.26.26 0 00-.1.04c-.3.15-.07.64.23.48.25-.14.12-.5-.1-.52zm-1.02.02h-.03c-.34.04-.27.56.07.52.32-.05.26-.53-.04-.52zm12.17 0h-.06c-.3.07-.21.54.1.48.28-.06.21-.47-.04-.48zm-18.46.05v.41h.41v-.41zm19.98.05c.2.01.2.33 0 .33-.21 0-.22-.34 0-.33zm-5.57.02a.16.16 0 00-.17.13c-.01.06.01.13.02.19h.27c.02-.08.05-.18 0-.25a.15.15 0 00-.12-.07zm-13.2.76l-.38.38v.03c.1.1.24.3.39.33.13.02.37-.22.35-.36-.03-.15-.24-.3-.35-.38zm10.15 0a.46.46 0 00-.14.02c-.49.17-.22.93.27.76.46-.15.28-.8-.13-.78zm6.1 0c-.5.01-.5.78 0 .8.5 0 .5-.8 0-.8zm-13.18.15c-.05 0-.1 0-.14.03-.3.16-.05.61.24.46.25-.14.12-.49-.1-.5zm11.15.02h-.02c-.34.05-.26.56.09.5.27-.05.2-.51-.07-.5zm-8.12.04l-.08.01c-.23.1-.07.46.16.35.19-.09.1-.35-.08-.36zm-1.03 0l-.17.13c.01.06.02.12.06.17.09.1.25.05.26-.08 0-.1-.08-.16-.15-.22zm5.96.05v.27h.27v-.27zm8.77.02c.06 0 .12.04.19.1v.03l-.2.2h-.02l-.17-.25c.08-.05.14-.08.2-.08zm-15.85 0V18h.24v-.22zm13.58.4h.41v.43h-.4zm-18.55.46a.28.28 0 00-.11.03c-.3.14-.07.6.23.47.28-.12.13-.5-.12-.5zm11.18 0h-.03c-.31.03-.26.52.05.48.3-.03.26-.47-.02-.48zm3.04.01c-.04 0-.08 0-.12.03-.25.14-.05.55.21.4.21-.11.1-.42-.1-.43zm-11.14.01h-.06c-.3.06-.23.53.07.48.29-.04.25-.47-.01-.48zm6.07.03h-.02c-.1 0-.2.12-.27.2v.02c.08.07.2.23.32.2.1-.01.18-.13.24-.2-.06-.08-.15-.22-.27-.22zm3.06.05h-.03c-.18.04-.13.31.04.28.16-.03.13-.27-.01-.28zm-6.12.04c-.06.1-.06.15 0 .25h.02c.06-.1.06-.16-.02-.25zm11.7.3c.1.08.27.2.27.34 0 .13-.18.25-.26.34h-.03c-.08-.09-.23-.2-.25-.32-.03-.15.18-.29.28-.36zm-16.28.07l.3.31-.22.25h-.05l-.32-.32zm15.19.03h.03c.27.02.25.45-.03.44-.27-.02-.25-.43 0-.44zm3.07.05c.14 0 .23.2.08.28-.17.08-.31-.17-.14-.26a.16.16 0 01.06-.02zm-19.77.28a.4.4 0 00-.17.04c-.46.24-.11.97.37.73.4-.21.17-.79-.2-.77zm3.05.2l-.2.2v.02c.05.04.1.1.17.13.1.03.2-.06.19-.16-.02-.08-.1-.14-.16-.2zm5.1.06a.13.13 0 00-.04 0c-.15.03-.14.27.02.25.16 0 .15-.24.01-.25zm5.58.23c.1.18.2.3.4.39l-.52.5c-.04-.2-.16-.33-.37-.38zm2 .1c.3.02.4.49.07.6-.37.11-.55-.48-.17-.58a.3.3 0 01.1-.01zm2 .02c.25 0 .4.38.13.5-.31.15-.56-.32-.25-.47a.27.27 0 01.12-.03zm1.01.18c.06 0 .12.04.18.06l-.05.22c-.07 0-.14 0-.2-.03-.1-.05-.08-.19.01-.23a.15.15 0 01.06-.02zm-6.57.19l-.38.34.12.53h.56c.03-.15.14-.35.11-.5-.03-.17-.28-.3-.4-.37zm-12.16.03l-.1.01c-.52.14-.3.93.22.78.45-.12.31-.77-.09-.8h-.03zm2.03 0l-.09.01c-.51.12-.32.92.2.79.47-.12.33-.81-.1-.8zm-3.06.04c-.08.08-.23.2-.26.31-.02.13.18.33.31.31.12-.02.23-.17.32-.26v-.02zm4.08.21c-.02 0-.05 0-.07.02-.16.1-.02.36.14.26.13-.08.05-.28-.07-.28zm2.02.02c-.02 0-.05.01-.07.03-.14.09 0 .31.14.23.14-.07.05-.26-.07-.26zm4.05.04s-.02 0-.03.02c-.1.05-.01.2.08.15.09-.05.03-.17-.05-.17zm4.5.1l.56.58h.03l.53-.54c.07.2.24.37.44.42-.13.13-.36.23-.45.4-.07.13.06.52.18.6.06.04.15.04.22.04l-.36.36c-.19-.29-.47-.51-.82-.3-.11.05-.19.17-.28.26-.1-.2-.22-.26-.41-.34v-.03c.08 0 .18.01.25-.04.12-.08.25-.5.18-.63-.1-.16-.3-.26-.43-.4.19-.08.28-.2.36-.39zm2.1.25c.32 0 .32.5 0 .5-.31 0-.32-.5 0-.5zm1.02.01l.2.2v.02l-.2.2h-.02l-.2-.2v-.03zm2.02.1c.18 0 .18.28 0 .28s-.18-.27 0-.27zm-4.53.24h-.03a.4.4 0 00-.16.04c-.43.22-.08.9.36.67.37-.18.17-.7-.17-.71zm-14.22.02a.3.3 0 00-.04 0c-.5.06-.42.82.07.76.47-.05.42-.76-.03-.76zm10.12.04h-.01c-.15.03-.29.23-.39.33v.02l.41.42c.12-.1.33-.24.36-.4.02-.13-.22-.38-.37-.37zm-7.1.06l-.26.27v.02l.27.27h.02l.27-.27v-.02zm6.1.1h-.03c-.23.04-.17.4.07.36.22-.04.16-.37-.05-.36zm-5.08.09h-.01c-.19.03-.14.3.04.3.19-.02.15-.31-.03-.3zm15.76.01h.02c.07.02.12.08.17.12v.02l-.2.2c-.04-.04-.1-.09-.12-.15-.03-.09.04-.19.13-.18zm-18.23.29c.06.18.2.23.36.31v.03c-.09.06-.2.18-.32.19-.14 0-.25-.16-.31-.26zm15.12.02c.22 0 .35.32.12.44-.26.13-.47-.28-.21-.4a.23.23 0 01.1-.04zm-4.54.37c-.09.07-.2.14-.28.23-.12.13-.08.45.07.55.07.06.18.04.26.04.07 0 .14 0 .2-.04.07-.05.1-.18.12-.27.03-.12.01-.2-.08-.3a2.27 2.27 0 00-.29-.21zm-9.1 0l-.1.02c-.52.11-.33.92.2.79.47-.12.32-.8-.1-.8zm6.08 0l-.1.02c-.52.12-.33.92.2.79.46-.12.32-.8-.1-.8zm8.62.07l.34.34v.03c-.08.08-.19.23-.31.25-.13.02-.33-.17-.3-.3.01-.13.18-.24.27-.32zm-9.66.07c-.07.07-.17.15-.18.25-.02.1.11.25.23.23.1-.02.17-.12.24-.18v-.03zm-3 .02c-.04 0-.08 0-.11.02-.31.12-.13.59.18.47.27-.1.16-.48-.08-.5zm-5.1.07c-.1 0-.2.1-.19.2.02.1.12.18.18.25h.03l.24-.24c-.06-.08-.12-.17-.22-.2l-.04-.01zm-.98.07c-.05 0-.1.02-.17.06.03.11.15.3.27.15.04-.04.05-.1.07-.15a.35.35 0 00-.17-.06zm16.72.26c.09.08.26.2.26.34 0 .13-.17.25-.26.34h-.02c-.09-.09-.24-.2-.26-.32-.03-.15.18-.29.28-.36zm1 .13c.27.01.26.44-.02.43-.28-.02-.25-.44.02-.43zm-11.68.32a.42.42 0 00-.17.05c-.48.24-.1.99.38.75.42-.22.18-.82-.2-.8zm2.02 0a.42.42 0 00-.17.05c-.48.24-.1.99.39.75.41-.22.17-.82-.22-.8zm4.06 0a.41.41 0 00-.17.05c-.46.23-.1.98.37.75.43-.22.19-.81-.2-.8zm-10.12.01l-.29.22c-.1.1-.08.2-.05.31.03.09.05.2.12.26.05.04.13.03.2.04.07 0 .19 0 .26-.04.16-.12.19-.46.04-.59a2.1 2.1 0 00-.28-.2zm11.16 0c-.04 0-.09 0-.14.02-.5.15-.25.92.25.78.48-.13.32-.79-.1-.8zm1.03 0a.5.5 0 00-.05 0c-.49.05-.45.8.05.78.5-.03.46-.77 0-.78zm-7.13 0l-.1.02c-.5.14-.28.93.22.78.45-.12.32-.78-.08-.8h-.04zm-6.28.2v.43h.41v-.44zm16.89.38c.3 0 .5.44.18.6-.37.2-.7-.38-.32-.57a.33.33 0 01.14-.03zm-13.1.03c.08.16.18.23.35.29v.02a.61.61 0 00-.37.34l-.41-.29zm5.02 0l.41.36-.41.3a.65.65 0 00-.36-.35zm10.15.04c.3.01.32.5.02.51-.07 0-.15 0-.2-.05-.17-.15-.07-.45.16-.46h.02zm-1.05.13c.14 0 .2.2.05.26-.18.06-.26-.2-.1-.25l.05-.01zm-16.7.2l-.43.43v.02l.44.44h.02l.44-.44v-.02zm12.71 0v.96h.95v-.97zm1.54.02a.5.5 0 00-.13.02c-.57.14-.33 1.03.25.88.53-.14.37-.9-.12-.9zm-5.12.06c-.15.01-.3.17-.41.25.04.14.07.4.2.5.1.08.34.04.48.04.04-.15.14-.34.11-.49 0-.07-.06-.12-.11-.16-.07-.06-.15-.13-.24-.14h-.03zm-8.1.14h-.05c-.2.06-.27.34-.1.46.08.06.22.04.32.04l.1-.36c-.08-.06-.18-.14-.28-.14zm9.14.07h-.02a.2.2 0 00-.09.03l-.12.1c.03.05.06.09.1.12a.2.2 0 00.07.04c.23.06.22-.28.06-.29zm6.55.34h.03c.13.03.23.18.32.26v.02c-.09.09-.21.26-.34.26-.13 0-.26-.17-.34-.26.07-.09.2-.28.33-.28zm-2.96.38v.88h.9v-.88zm-.58 0l-.1.02c-.52.14-.3.94.22.8.47-.13.33-.8-.08-.81h-.04zm-8.1.03c-.04 0-.07 0-.1.02-.52.14-.3.92.21.78.45-.12.32-.78-.08-.8h-.04zm1.03.03h-.04c-.49.04-.44.8.05.76.48-.03.44-.76 0-.76zm-2.04.01c-.14 0-.36.18-.38.3-.02.08.02.17.04.24.04.13.07.23.22.24h.39c.03-.13.1-.27.1-.41.01-.1-.05-.17-.13-.24-.06-.05-.13-.11-.21-.12h-.03zm5.05.14l-.18.01v.44c.1 0 .25.02.34-.03.1-.06.1-.32 0-.38a.33.33 0 00-.16-.04zm-9.11.01l-.2.15c.02.07.03.16.07.22.17.22.32-.09.34-.22zm3.04 0l-.03.01c-.1.02-.17.12-.24.18v.03l.27.27c.07-.07.19-.14.2-.25.03-.1-.1-.23-.2-.23zm9.12.03h-.04c-.25.06-.15.44.1.38.2-.06.14-.39-.06-.38zm-10.12 0h-.05c-.23.05-.16.42.07.37.23-.04.18-.37-.02-.37zm6.07 0c-.02 0-.05.01-.07.03-.22.1-.06.42.15.32.19-.08.1-.34-.08-.34zm7.61.36c.3.01.42.4.2.6-.06.07-.18.06-.27.05-.38-.02-.33-.67.07-.65zm-2.95.44v.82h.4v.03c-.15.08-.35.3-.52.3-.1 0-.18-.1-.26-.14a.48.48 0 00-.6.18.45.45 0 00.23.63c.27.09.52-.06.6-.32h.03c.03.13.06.39.2.46.1.06.27.03.39.03.09 0 .21.02.29-.04.12-.1.16-.37.2-.52h.02l.04.38.25.06h.6v-.9h-.9v.27l-.55-.4v-.02l.36-.04.05-.23v-.55zm-7.71.1l-.3.28v.03l.3.3h.02l.3-.3v-.03zm3.04.1l-.2.18v.03l.2.2h.03l.19-.2v-.03zm-4.23.01v.4h.39v-.4zm-.83.05h-.04c-.18.06-.09.33.08.28.16-.05.1-.28-.04-.28zm2.92 0v.27h.27v-.27zm-4.04.03v.22h.22v-.22zm10.25 1.7c-.16 0-.36.2-.5.29.06.15.1.42.21.53.07.06.18.05.26.05.1 0 .22.02.3-.03.14-.08.19-.4.24-.55-.14-.1-.32-.29-.49-.3h-.02zm1.01.02a.4.4 0 00-.16.04c-.48.24-.13.96.34.73.4-.2.18-.78-.18-.77zm-2.02 0a.4.4 0 00-.16.04c-.5.25-.12.97.36.72.4-.2.17-.77-.2-.76zm2.02.92h-.03a.45.45 0 00-.4.27.54.54 0 00-.05.25c0 .1.03.18.08.26.06.1.14.15.24.2v.02h-.34v-1h-1v1h.36v.03a.5.5 0 00-.28.8c.1.12.23.18.38.2v.02c-.14.07-.44.22-.48.4-.04.18.12.44.17.62h.46l.21-.06.13-.3h.02c.14.29.47.46.78.33.1-.04.17-.12.25-.2l.03.18.18.05h.47l.33-.04.06-.4c.1.1.3.38.46.38.16 0 .35-.27.46-.38.03.1.07.18.13.26.2.24.6.28.82.06a.6.6 0 000-.84c-.1-.09-.22-.12-.34-.16.1-.1.36-.28.36-.44 0-.14-.29-.43-.43-.4-.13.02-.24.18-.32.28h-.02c-.12-.11-.26-.2-.4-.3-.06-.05-.15-.11-.24-.1-.15.03-.28.26-.45.24-.12-.02-.2-.16-.3-.21-.28-.14-.56 0-.76.2v-.22h-.34c.1-.07.21-.15.27-.27.21-.38-.13-.72-.47-.73zm-2.06 0l-.49.5v.02l.49.48h.02c.12-.12.4-.3.42-.48 0-.08-.06-.14-.1-.2a2.8 2.8 0 00-.34-.31zm3.11.24l-.1.01a.39.39 0 00-.13.1.22.22 0 00-.07.17c0 .1.04.2.06.29h.29c.32-.05.23-.57-.05-.57zm-4.11.1c-.05 0-.1.03-.13.1a.18.18 0 00-.03.1c0 .06.03.12.04.17h.17c.26-.06.11-.38-.05-.37zm2.56.66v.4h-.03a.63.63 0 00-.36-.37zm-1.52.1l-.09.02c-.5.1-.34.9.17.79.47-.1.36-.8-.08-.8zm4.63.49l.4.38a.7.7 0 00-.52.47l-.34-.37c.08 0 .18.01.25-.03.14-.07.17-.32.21-.45zm-3.11.04v.4h.24l-.27.3-.44-.28c.2-.11.34-.22.47-.42zm2.12.1c.04.18.08.32.29.34l-.34.37v-.42h-.22zm-1.05.07l.2.22h-.23zm-.27.22h.2v.2zm-2.32.26a.3.3 0 00-.09.01c-.31.11-.15.59.17.49.3-.1.18-.5-.08-.5zm-6.43 1.18l.03.08-.03-.07v-.01zm1.05.88h-.02.02z" class="cg_lion"/>
</svg>
