<svg xmlns="http://www.w3.org/2000/svg" width="1000" height="1000" viewBox="0 0 264.6 264.6" class="barrs-barking-salon-site-logo">
  <path fill="#d59e0d" stroke="#000" stroke-linecap="square" stroke-width=".6" d="M0 0h264.6v264.6H0z" paint-order="markers stroke fill"/>
  <g transform="translate(9.2 -6.6)">
    <path fill="#3f3e3d" d="M87.6 89.5a7 7 0 00-2.3.4c-1.8.6-3.4 2-5.3 2.5-1.5.4-3.2.4-4.7.6-1.5.1-3 .5-4.5.7-.3 1.9-.6 4.2 0 6 .8 3.1 3.4 5.2 6.3 6 2.5.6 6.5.2 8.4 2.1 1.4 1.4 1 3.2.8 5-.2 1.2 0 2.4-.2 3.7 0 1.3-.5 2.8-.3 4.2.2 2.4 2.7 2.5 4 4 2.3 2.8.6 6.3-.8 9l.8.2-2.6 5 1.8.6v4c1.3.7 1.7 1.4 1.9 2.9l1.6.2 1.6-.5.2 1.8c5 2.1 7.7 6.5 8.2 11.7.1 1.5-.5 3-.3 4.5.2 1.9 1 3.7 1.4 5.5.3 1 .6 2.2.3 3.1-.5 1.5-3 2.3-1.2 4 .3.3.6.4 1 .5 4.5 1.4 6.8-3.4 10.5-4.6l1.6-16.2V153.2l.8.3c.8-1.7 1.6-2.2 3.1-3.2l.8.6 5.3-.8 11.7-.8c.7-2 2.5-.3 3.7.3 1.6.9 3.8 1.2 5.2 2.5a11 11 0 012.2 3.5c.8 2-.3 4.8-1.9 6.2-.8.8-3.2 1.7-2.7 3.2.2.5 1 .6 1.4.7 1.4.3 3 .2 4.1-.7 1-.7 2.3-1.8 2.9-2.8 1-2 1.1-5 1.5-7.1 2.3.6 4.5 2.1 6.6 3.3 3.5 2 7.4 3.7 8 8.3.3 1.6.3 3.4-.5 4.8-.5.9-2.3 2-1.4 3.2 1.8 2.3 7 1.2 7.9-1.4.4-1.2 0-2.4-.1-3.7-.2-3.3-.9-6.5-1.6-9.7-.6-2.2-1.7-4.1-2.8-6-1-1.8-2.3-3.2-1.8-5.4l-1.4.2-.2-2.6-1.4.3c-.7-1.5-1.7-2.8-2.3-4.3-1-3.1-1.4-6.5-2.7-9.5-.7-1.7-2.5-4.3-1.4-6.2.6-1 2-1.4 3-1.9l7.4-3 .3.3c0 1.3.6 1.8 1.8 2.3l-1 2.4 1.3-.2 1 1.3V126h.3l.8 3.2h.5l.6-2.4h.5l.3 2.6 1-.5.3 1 1.6-.2.8-1.3-.3 2.6 3-1c1 1.3 1.2-.5 1.2-1.4h.6v1.6l1 1c2.1-1.7 2.6-4.2 2.7-6.8h.2l.3 3h.5l.3-2.7 1-.3-.5-1.3h1l-1.2-3 1.3 2h.5c.2-1.6 0-2.7-1-3.8v-.3l.7-1c-3-.6-5.7 0-8.7 0-1.7 0-3.3-.8-5-1-2.8-.3-5.7.2-8.5.8-4.2.8-8 3-12.4 3.5-5 .6-9.4-2.5-14.3-3-7.3-.6-14.8 1.9-22 .2-3-.7-6-1.9-9-3a12 12 0 01-5.4-3.7c-1.1-1.5-1-3.4-1.7-5.1-.9-2.3-2.4-4.3-3.6-6.4-1.7-3-2.4-6.1-5.7-7.9-1.9-1-4.4-1.9-6.7-1.9zM189 119v.1s-.2 0 0 0zm-12.2 7.4l-.3 1h-.2zm4 1.8v.8h-.3z"/>
    <circle cx="-123.7" cy="-138.9" r="74.3" fill="none" stroke="#000" stroke-linecap="square" stroke-width=".6" display="none" paint-order="markers stroke fill" transform="scale(-1)"/>
    <g fill="#3f3e3d" stroke-width=".3" aria-label="BARR'S BARKING SALON" font-family="Cantata One" font-size="14.1" letter-spacing="2.1" style="line-height:1.25;-inkscape-font-specification:'Cantata One'">
      <path d="M48 138.1l.1-1.2-9.4-.6-.1 1.1H38l.4-5.2q.1-1.6 1-2.3.7-.8 1.9-.7 1.3.1 1.9 1.4l.2.8q.3-1.3 1-2 .8-.6 1.8-.5 1.4 0 2.1 1.1.7 1.1.6 3l-.4 5.2zm-4.8-5q0-1.6-1.2-2h-.8q-1-.2-1.5.2-.7.4-.8 1.6l-.1 1.5 4.2.3zm5.1.4q.1-1.3-.4-2-.6-.7-1.7-.7-1.6-.2-2.2 1-.3.5-.3 1.2l-.1 1.8 4.6.3zM49 126l.3-.8-8.8-6.1.2-.8 10.7-1.7.1-.6h.6l-1 3.7h-.5l.3-1-2.6.3-1 4 2.1 1.5.3-1.2.6.1-.7 2.7zm-1.3-7l-5 .8 4.1 3zM45.2 105q1.6-3.7 4-2.6 1.1.5 1.5 1.4.4 1 0 2.2 1-1.4 2.5-1.4l1.3.1 1 .1q.7 0 1-.6v-.2l.6.2-.4.9q-.5 1.2-1 1.5-.6.3-1.7 0l-1.4-.2q-.8 0-1.4.3-.6.2-1 1l-.5 1 4 1.8.6-1.5.5.3-1.8 4.2-.5-.3.4-1-8.6-3.8-.5 1-.5-.2zM50 107q.5-1.1 0-1.9-.4-.6-1.4-1-1-.4-1.6-.2-.8.2-1.3 1.4l-.6 1.3 4.3 1.9zM52.1 92.2q2.2-3.3 4.4-1.8 1 .6 1.2 1.6.2 1-.3 2.2 1.1-1.2 2.6-1l1.3.4 1 .2q.7.1 1-.4l.2-.2.5.3-.6.8q-.7 1.1-1.3 1.3-.6.2-1.6-.2T59 95q-.8-.2-1.4 0-.7 0-1 .7l-.8 1 3.6 2.5 1-1.4.4.3-2.6 3.8-.4-.3.6-.9-7.9-5.2-.6 1-.5-.4zm4.3 3q.7-1 .3-2-.3-.5-1.2-1.1-.9-.6-1.5-.6-.9.1-1.6 1.2l-.8 1.2 4 2.6zM58.6 83.3l-.3-.6q0-.4.3-.7.2-.3.5-.3.5 0 .7.3l2.4 2.9-.4.4zM71.7 84q0 .4.3.8l-.5.4-1.8-2.2.5-.4q1 .6 2 .5 1 0 2-.8 1.1-1 1-2l-.3-.6q-.5-.5-1.3-.6-.7 0-2 .4l-2 .7h-1.4q-1-.1-1.8-1-.8-1-.5-2.3.3-1.2 1.4-2.2l1.2-.9 1-.2q0-.3-.2-.5l.5-.4 1.7 1.9-.5.4q-.7-.7-1.7-.6-.9 0-1.6.7-.8.7-1 1.4-.2.7.3 1.2.4.5 1.2.5.8 0 2.7-.5 1.7-.6 2.6-.5 1 0 1.7.8 1 1.1.7 2.4-.2 1.3-1.3 2.3-1.1 1-2.3 1.2h-.6zM85.5 73.9l1-.5-4.2-8.5-1 .5-.3-.4 4.7-2.4q1.4-.7 2.5-.4 1 .3 1.5 1.4.6 1.2-.2 2.3-.2.4-.6.6 1.3-.4 2.2-.1 1 .3 1.4 1.2.7 1.3.1 2.5-.5 1.1-2.2 2l-4.6 2.3zm2-6.8q1.2-.6 1-1.9l-.4-.8q-.4-1-1-1.2-.6-.4-1.8.2l-1.3.7 1.9 3.8zm2.2 4.7q1-.5 1.4-1.4.3-.8-.2-1.8-.7-1.4-2-1.3-.6 0-1.2.3l-1.6.8 2.1 4.1zM96.5 68.6l.7-.2.9-10.7.7-.2 7 8.4.6-.2.1.5-3.6 1-.1-.4 1-.3-1.7-2-4 1.1-.2 2.6 1.2-.3.2.5-2.6.8zm5.3-4.6l-3.3-4-.3 5zM112.7 54.6q3.9-.4 4.2 2.2.2 1.2-.5 2-.6.8-1.8 1.1 1.6.1 2.4 1.4l.6 1.2.4 1q.4.5 1 .4h.3v.6h-.9q-1.3.2-1.9 0-.5-.4-.8-1.4l-.6-1.3q-.4-.8-1-1.2-.4-.4-1.2-.3l-1.3.2.6 4.3 1.6-.2v.5l-4.5.6V65l1-.1-1.1-9.4-1.1.1v-.5zm.5 5.2q1.2-.1 1.6-1 .3-.6.2-1.7-.1-1-.6-1.5-.6-.6-2-.4l-1.4.2.6 4.6zM122.4 63.8l1.3.1.5-9.4-1.3-.1v-.5l4.6.2v.6l-1.4-.1-.3 4.8 5.1-4.6h-1v-.6l3.1.2v.6l-1.2-.1-4 3.5 4.3 6h1v.6l-4.4-.3v-.5h1l-3.2-4.6-.7.6-.2 3.8 1.4.1v.5l-4.6-.2zM136 65l1.3.4 2-9.3-1.4-.3v-.5l4.6.9-.1.5-1.4-.2-1.9 9.2 1.4.3-.2.5-4.4-.9zM143.9 66.8l1.1.4 3.3-9-1.2-.3.2-.5 3 1 2.3 9.7 2.7-7.2-1.2-.5.1-.5 3.1 1.1-.2.5-1.2-.4-3.4 9.4-1.2-.5-2.7-10.7-3 8.1 1.4.5-.2.5-3.1-1.1zM166.9 66q2 1.2 2.4 2.5.2 0 .6-.5l.5.3-1.5 2.5-.5-.3q.4-1.3-.1-2.3-.5-1-1.6-1.6-2-1.3-4 .4-1.2 1-2 3-1.2 2.5.1 4.1.4.5 1 .8l1 .4q.3.2.7.2h.6l.4-.2 1.3-2.3-1.5-1 .3-.4 3.7 2.3-.3.4-.8-.4-1.4 2.4q-.7.3-2 0-1.2-.2-2.3-.9-1.1-.7-1.8-1.6-.7-.9-1-1.9-.5-2 .7-4t3.2-2.5q1.4-.4 3 0l1.3.6zM175.2 84.7q-.5 0-.8.3l-.4-.4 2-2 .5.6q-.6.9-.5 2 .1 1 1 1.9 1 1 2 .9.3-.1.5-.4.6-.5.6-1.2 0-.8-.5-2l-.8-2-.1-1.4q0-1 1-1.8.9-.9 2.2-.7 1.3.2 2.3 1.3l.9 1.2q.3.6.3 1 .3 0 .5-.2l.4.4-1.8 1.8-.5-.5q.7-.7.6-1.7-.1-.9-.8-1.6-.7-.7-1.4-.9-.7-.1-1.2.4-.5.4-.5 1.2 0 .8.7 2.6.7 1.7.6 2.7 0 1-.8 1.7-1 1-2.3.8-1.3-.1-2.3-1.2-1-1-1.3-2.2l-.1-.6zM181.6 92l.4.5 10.4-2.5.5.7-5.8 9 .4.7-.5.3-2.1-3.1.4-.3.6.8 1.4-2.2-2.4-3.4-2.5.6.7 1-.4.4-1.6-2.3zm6 3.4l2.8-4.3-5 1.3zM188.8 102.9l.7 1.3 8.5-4-.5-1.1.5-.3 1.8 3.9-.5.2-.5-1.1-8.5 4 .9 2q.8 1.6 2.4 1.2.5 0 1-.3l.2.5-2.9 1.4-3.6-7.5zM195.9 113.6l1.1-.7q.6-.4 1.3-.6l1.3-.2 1.4.1q1.4.2 2.4 1.2 1 .9 1.5 2.5.7 2.4-.5 4.3-1.2 1.6-3.3 2.2-2.2.6-4-.2-1.2-.6-2-1.9-.4-.6-.6-1.5l-.2-1.6.2-1.4.5-1.2.9-1zm1.4 7q.5.2 1.3.2.9 0 1.7-.2l1.4-.5 1-.6q1-.6 1.5-1.5t.2-2q-.5-1.6-2.2-2-1.5-.3-3.3.2-1.9.6-3 1.6-1.3 1.3-.9 2.8.5 1.6 2.3 2zM197.2 127.2v1.2l9.5-.8v-1.2h.5l.2 3-7.8 6.3 7.8-.7-.1-1.3h.5l.3 3.2h-.6v-1.2l-10 .9-.2-1.3 8.6-7-8.5.7v1.4h-.5l-.2-3.2z"/>
    </g>
  </g>
</svg>
