<svg preserveAspectRatio="xMidYMid meet" xmlns="http://www.w3.org/2000/svg" width="300" height="300" viewBox="0 0 225 225">
  <path fill="none" d="M0 0h225v225H0z"/>
  <path id="svgPaws" d="M75.3 31.7c-1 0-3 .6-3.6 1.1-2 1.5-3.3 3-4.3 5.3a21 21 0 00-.9 13.7c1 3.8 2.5 6.8 5 9.2 1.2 1.2 1.9 1.8 3.2 2.4a8.5 8.5 0 006.9.7 7 7 0 003-2c3.7-4 5-10.4 3.6-17a26 26 0 00-3.6-8.3 11.8 11.8 0 00-9.3-5zM46 42.8c-1.3 0-3.4.7-4.3 1.4-2.7 2.1-4 6-3.7 10.2l.6 3a22.4 22.4 0 0011.6 14.3c2 1 4.8 1.5 6.7 1.3 2.8-.2 5.6-3 6.5-6.2a16 16 0 00-.7-10c-.8-2.2-1.6-3.9-3-5.7-3.6-5.4-8.5-8.3-13.7-8.3zm57.3 6.6h-.6c-1.2 0-2.5.4-3.6 1.1a15 15 0 00-6 8.3 22 22 0 001.3 15.5c1.3 2.3 3 4 5.1 5 1.4.7 2.6 1 4 .8 3-.3 6.2-2.8 8.1-6.5a21.3 21.3 0 00.1-17.7c-.9-1.9-2.5-3.8-4-5-.6-.3-2-1-2.8-1.2-.5-.2-1-.3-1.6-.3zm-65 25.5a11.2 11.2 0 00-3.8.9 8.2 8.2 0 00-4.5 8 20.3 20.3 0 0011.3 16c2.6 1.2 4.7 1.6 7.4 1.5a7 7 0 006.7-4.6c1-2.5 1-4.7-.2-8.2a20 20 0 00-17-13.5zM81 78.1a17.3 17.3 0 00-8 2c-5.7 2.9-10.3 8.4-12 14.7a54 54 0 00-2.4 15.4c0 3.2.4 7.4 1 9 1.2 3.3 4.6 5.9 8 6 1.4 0 2.9-.2 4.2-.8a29 29 0 007.5-5.4c4-3.4 5-4.2 7.7-5.5 3.7-1.8 6.4-2.2 12.8-1.9 5.7.3 6.9.3 9-.5 3.8-1.4 6.1-4.5 6-8-.2-1.2-1.2-4-2-5.2a37 37 0 00-8.1-8.6 50.2 50.2 0 00-19.1-10.6c-1.6-.4-3-.6-4.6-.6zm67 20.2c-2.8 0-6 1.7-8.1 4.3-2 2.6-3.9 7.3-4.3 11.3-.6 6.6 1.3 12.2 5.4 15.7a7 7 0 003.5 1.5c3.8.5 7.6-1.8 10.4-6.2.9-1.4 2.1-4.7 2.5-6.6 1.6-7.5 0-14.1-4.3-18-.7-.6-2.4-1.6-2.9-1.7l-1-.2-1.2-.1zm29.6 10.5c-5.2 0-10.3 3.4-13.9 9.2-3.3 5.4-4.2 10.8-2.6 15.4 1 3.3 3.8 5.8 6.5 6.1 1 .2 3.3-.1 4.6-.5 3.8-1.2 7.2-3.8 9.7-7.5 1.4-2 2.1-3.5 3-6a16 16 0 001-8 11 11 0 00-2.6-6.1 7.6 7.6 0 00-5.7-2.6zm-56.6 8.8c-2 0-4.2.7-5.6 2-2.2 2-4 5.8-4.5 9.6-.4 2.8-.2 6.4.6 9 1.6 5.2 5.6 9.5 9.4 10 1.2.1 2.4-.1 4-.8 2.7-1.3 4.3-3.2 5.7-7a20.1 20.1 0 00-2.3-18.3c-2-2.8-4-4-6.5-4.4h-.8zm66 22.3c-5.2-.1-10.8 3.1-14.6 8.7-1.2 1.8-2.3 4-2.7 5.6-.7 2.9-.6 5.6.4 7.9a7 7 0 005.6 4.6c5.7 1 12.4-2.6 16.4-8.8.9-1.5 2-3.8 2.4-5.2 1-3.8.4-7.8-1.6-10.2a7 7 0 00-3.6-2.3 12 12 0 00-2.2-.3zm-43 5.4a25.8 25.8 0 00-14.6 5 49 49 0 00-15.4 16.9 9 9 0 002.8 10.3c.7.5 1.1.7 2.4 1.2 2.7 1 4.4 1.1 10.3 1 5.3 0 6.4.1 9.3.8 3.9 1 6.2 2.5 11.2 7 4.1 4 5.1 4.6 7.4 5.3 2.4.7 4.3.6 6.3-.3 2.2-1 3.4-2.4 4.2-5.3 1.3-4 1-9.4-1.2-18.2-1.7-7-3.8-12-6.7-16a18.4 18.4 0 00-5.2-5 22.3 22.3 0 00-10.7-2.8z"/>
</svg>
