<svg xmlns="http://www.w3.org/2000/svg" xmlns:xlink="http://www.w3.org/1999/xlink" width="128" height="128" class="social_icon-instagram" viewBox="0 0 128 128" preserveAspectRatio="xMinYMid meet">
  <path fill="url(#pattern_insta)" d="M0 0v128h128V0zm41.9 16a26 26 0 01.1 0h44a26 26 0 0126 26v44a26 26 0 01-26 26H42a26 26 0 01-26-26V42a26 26 0 0125.9-26zm.1 8c-10 0-18 8-18 18v44c0 10 8 18 18 18h44c10 0 18-8 18-18V42c0-10-8-18-18-18zm47.5 9a5.5 5.5 0 015.5 5.5 5.5 5.5 0 01-5.5 5.5 5.5 5.5 0 01-5.5-5.5 5.5 5.5 0 015.5-5.5zM64 40a24 24 0 010 48 24 24 0 010-48zm-.1 8a16 16 0 00.1 32 16 16 0 000-32 16 16 0 00-.1 0z"/>
  <path class="instaMask" fill="#d59e0d" d="M0 0v128h128V0zm41.9 16a26 26 0 01.1 0h44a26 26 0 0126 26v44a26 26 0 01-26 26H42a26 26 0 01-26-26V42a26 26 0 0125.9-26zm.1 8c-10 0-18 8-18 18v44c0 10 8 18 18 18h44c10 0 18-8 18-18V42c0-10-8-18-18-18zm47.5 9a5.5 5.5 0 015.5 5.5 5.5 5.5 0 01-5.5 5.5 5.5 5.5 0 01-5.5-5.5 5.5 5.5 0 015.5-5.5zM64 40a24 24 0 010 48 24 24 0 010-48zm-.1 8a16 16 0 00.1 32 16 16 0 000-32 16 16 0 00-.1 0z"/>
</svg>
